<?xml version="1.0" encoding="UTF-8" standalone="no"?>
<!DOCTYPE svg PUBLIC "-//W3C//DTD SVG 1.1//EN"
 "http://www.w3.org/Graphics/SVG/1.1/DTD/svg11.dtd">
<!-- Generated by graphviz version 2.40.1 (20161225.0304)
 -->
<!-- Title: public.account_organization Pages: 1 -->
<svg width="1158pt" height="532pt"
 viewBox="0.00 0.00 1158.00 532.00" xmlns="http://www.w3.org/2000/svg" xmlns:xlink="http://www.w3.org/1999/xlink">
<g id="graph0" class="graph" transform="scale(1 1) rotate(0) translate(4 528)">
<title>public.account_organization</title>
<polygon fill="#ffffff" stroke="transparent" points="-4,4 -4,-528 1154,-528 1154,4 -4,4"/>
<!-- public.account_organization -->
<g id="node1" class="node">
<title>public.account_organization</title>
<polygon fill="#efefef" stroke="transparent" points="374,-442.5 374,-477.5 738,-477.5 738,-442.5 374,-442.5"/>
<polygon fill="none" stroke="#000000" points="374,-442.5 374,-477.5 738,-477.5 738,-442.5 374,-442.5"/>
<text text-anchor="start" x="380.6817" y="-455.3" font-family="Arial Bold" font-size="18.00" fill="#000000">public.account_organization</text>
<text text-anchor="start" x="603.7503" y="-455.3" font-family="Arial" font-size="14.00" fill="#000000">    </text>
<text text-anchor="start" x="637.9551" y="-455.3" font-family="Arial" font-size="14.00" fill="#666666">[BASE TABLE]</text>
<polygon fill="none" stroke="#000000" points="374,-412.5 374,-442.5 738,-442.5 738,-412.5 374,-412.5"/>
<text text-anchor="start" x="381" y="-423.9" font-family="Arial" font-size="14.00" fill="#000000">account_id </text>
<text text-anchor="start" x="452.5834" y="-423.9" font-family="Arial" font-size="14.00" fill="#666666">[uuid]</text>
<polygon fill="none" stroke="#000000" points="374,-382.5 374,-412.5 738,-412.5 738,-382.5 374,-382.5"/>
<text text-anchor="start" x="381" y="-393.9" font-family="Arial" font-size="14.00" fill="#000000">organization_id </text>
<text text-anchor="start" x="479.805" y="-393.9" font-family="Arial" font-size="14.00" fill="#666666">[uuid]</text>
<polygon fill="none" stroke="#000000" points="374,-352.5 374,-382.5 738,-382.5 738,-352.5 374,-352.5"/>
<text text-anchor="start" x="381" y="-363.9" font-family="Arial" font-size="14.00" fill="#000000">created_at </text>
<text text-anchor="start" x="451.028" y="-363.9" font-family="Arial" font-size="14.00" fill="#666666">[timestamp with time zone]</text>
<polygon fill="none" stroke="#000000" points="374,-322.5 374,-352.5 738,-352.5 738,-322.5 374,-322.5"/>
<text text-anchor="start" x="381" y="-333.9" font-family="Arial" font-size="14.00" fill="#000000">updated_at </text>
<text text-anchor="start" x="454.9326" y="-333.9" font-family="Arial" font-size="14.00" fill="#666666">[timestamp with time zone]</text>
<polygon fill="none" stroke="#000000" stroke-width="3" points="372.5,-321.5 372.5,-479.5 739.5,-479.5 739.5,-321.5 372.5,-321.5"/>
</g>
<!-- public.account -->
<g id="node2" class="node">
<title>public.account</title>
<polygon fill="#efefef" stroke="transparent" points="219,-162.5 219,-197.5 502,-197.5 502,-162.5 219,-162.5"/>
<polygon fill="none" stroke="#000000" points="219,-162.5 219,-197.5 502,-197.5 502,-162.5 219,-162.5"/>
<text text-anchor="start" x="239.1979" y="-175.3" font-family="Arial Bold" font-size="18.00" fill="#000000">public.account</text>
<text text-anchor="start" x="354.2341" y="-175.3" font-family="Arial" font-size="14.00" fill="#000000">    </text>
<text text-anchor="start" x="388.4389" y="-175.3" font-family="Arial" font-size="14.00" fill="#666666">[BASE TABLE]</text>
<polygon fill="none" stroke="#000000" points="219,-132.5 219,-162.5 502,-162.5 502,-132.5 219,-132.5"/>
<text text-anchor="start" x="226" y="-143.9" font-family="Arial" font-size="14.00" fill="#000000">id    </text>
<text text-anchor="start" x="271.094" y="-143.9" font-family="Arial" font-size="14.00" fill="#666666">[uuid]</text>
<polygon fill="none" stroke="#000000" points="219,-102.5 219,-132.5 502,-132.5 502,-102.5 219,-102.5"/>
<text text-anchor="start" x="226" y="-113.9" font-family="Arial" font-size="14.00" fill="#000000">name    </text>
<text text-anchor="start" x="295.2132" y="-113.9" font-family="Arial" font-size="14.00" fill="#666666">[text]</text>
<polygon fill="none" stroke="#000000" points="219,-72.5 219,-102.5 502,-102.5 502,-72.5 219,-72.5"/>
<text text-anchor="start" x="226" y="-83.9" font-family="Arial" font-size="14.00" fill="#000000">created_at    </text>
<text text-anchor="start" x="326.3422" y="-83.9" font-family="Arial" font-size="14.00" fill="#666666">[timestamp with time zone]</text>
<polygon fill="none" stroke="#000000" points="219,-42.5 219,-72.5 502,-72.5 502,-42.5 219,-42.5"/>
<text text-anchor="start" x="225.5344" y="-53.9" font-family="Arial" font-size="14.00" fill="#000000">updated_at    </text>
<text text-anchor="start" x="329.7812" y="-53.9" font-family="Arial" font-size="14.00" fill="#666666">[timestamp with time zone]</text>
</g>
<!-- public.account_organization&#45;&gt;public.account -->
<g id="edge1" class="edge">
<title>public.account_organization:account_id&#45;&gt;public.account:id</title>
<path fill="none" stroke="#000000" d="M363.8509,-426.6511C310.0509,-417.0018 335.8184,-327.4015 374,-277 409.6848,-229.8944 466.3152,-288.1056 502,-241 527.0931,-207.876 543.5556,-147.5 502,-147.5"/>
<polygon fill="#000000" stroke="#000000" points="364.0348,-426.6664 373.6249,-431.9843 369.0174,-427.0832 374,-427.5 374,-427.5 374,-427.5 369.0174,-427.0832 374.3751,-423.0157 364.0348,-426.6664 364.0348,-426.6664"/>
<text text-anchor="start" x="6.9855" y="-437.5" font-family="Arial" font-size="10.00" fill="#000000">FOREIGN KEY (account_id) REFERENCES account(id) ON DELETE CASCADE</text>
</g>
<!-- public.organization -->
<g id="node3" class="node">
<title>public.organization</title>
<polygon fill="#efefef" stroke="transparent" points="606,-162.5 606,-197.5 897,-197.5 897,-162.5 606,-162.5"/>
<polygon fill="none" stroke="#000000" points="606,-162.5 606,-197.5 897,-197.5 897,-162.5 606,-162.5"/>
<text text-anchor="start" x="612.6983" y="-175.3" font-family="Arial Bold" font-size="18.00" fill="#000000">public.organization</text>
<text text-anchor="start" x="762.7337" y="-175.3" font-family="Arial" font-size="14.00" fill="#000000">    </text>
<text text-anchor="start" x="796.9385" y="-175.3" font-family="Arial" font-size="14.00" fill="#666666">[BASE TABLE]</text>
<polygon fill="none" stroke="#000000" points="606,-132.5 606,-162.5 897,-162.5 897,-132.5 606,-132.5"/>
<text text-anchor="start" x="613" y="-143.9" font-family="Arial" font-size="14.00" fill="#000000">id    </text>
<text text-anchor="start" x="658.094" y="-143.9" font-family="Arial" font-size="14.00" fill="#666666">[uuid]</text>
<polygon fill="none" stroke="#000000" points="606,-102.5 606,-132.5 897,-132.5 897,-102.5 606,-102.5"/>
<text text-anchor="start" x="613" y="-113.9" font-family="Arial" font-size="14.00" fill="#000000">name    </text>
<text text-anchor="start" x="682.2132" y="-113.9" font-family="Arial" font-size="14.00" fill="#666666">[text]</text>
<polygon fill="none" stroke="#000000" points="606,-72.5 606,-102.5 897,-102.5 897,-72.5 606,-72.5"/>
<text text-anchor="start" x="613" y="-83.9" font-family="Arial" font-size="14.00" fill="#000000">created_at    </text>
<text text-anchor="start" x="713.3422" y="-83.9" font-family="Arial" font-size="14.00" fill="#666666">[timestamp with time zone]</text>
<polygon fill="none" stroke="#000000" points="606,-42.5 606,-72.5 897,-72.5 897,-42.5 606,-42.5"/>
<text text-anchor="start" x="613" y="-53.9" font-family="Arial" font-size="14.00" fill="#000000">updated_at    </text>
<text text-anchor="start" x="717.2468" y="-53.9" font-family="Arial" font-size="14.00" fill="#666666">[timestamp with time zone]</text>
</g>
<!-- public.account_organization&#45;&gt;public.organization -->
<g id="edge2" class="edge">
<title>public.account_organization:organization_id&#45;&gt;public.organization:id</title>
<path fill="none" stroke="#000000" d="M747.9574,-396.4436C788.6244,-387.0096 768.2857,-316.6515 738,-277 701.0891,-228.6744 642.9109,-289.3256 606,-241 580.776,-207.9755 564.4444,-147.5 606,-147.5"/>
<polygon fill="#000000" stroke="#000000" points="747.9442,-396.4449 737.5252,-393.0251 742.9721,-396.9724 738,-397.5 738,-397.5 738,-397.5 742.9721,-396.9724 738.4748,-401.9749 747.9442,-396.4449 747.9442,-396.4449"/>
<text text-anchor="start" x="744.5415" y="-407.5" font-family="Arial" font-size="10.00" fill="#000000">FOREIGN KEY (organization_id) REFERENCES organization(id) ON DELETE CASCADE</text>
</g>
</g>
</svg>
