<?xml version="1.0" encoding="UTF-8" standalone="no"?>
<!DOCTYPE svg PUBLIC "-//W3C//DTD SVG 1.1//EN"
 "http://www.w3.org/Graphics/SVG/1.1/DTD/svg11.dtd">
<!-- Generated by graphviz version 2.40.1 (20161225.0304)
 -->
<!-- Title: public.organization Pages: 1 -->
<svg width="827pt" height="532pt"
 viewBox="0.00 0.00 827.00 532.00" xmlns="http://www.w3.org/2000/svg" xmlns:xlink="http://www.w3.org/1999/xlink">
<g id="graph0" class="graph" transform="scale(1 1) rotate(0) translate(4 528)">
<title>public.organization</title>
<polygon fill="#ffffff" stroke="transparent" points="-4,4 -4,-528 823,-528 823,4 -4,4"/>
<!-- public.organization -->
<g id="node1" class="node">
<title>public.organization</title>
<polygon fill="#efefef" stroke="transparent" points="448,-165.5 448,-200.5 739,-200.5 739,-165.5 448,-165.5"/>
<polygon fill="none" stroke="#000000" points="448,-165.5 448,-200.5 739,-200.5 739,-165.5 448,-165.5"/>
<text text-anchor="start" x="454.6983" y="-178.3" font-family="Arial Bold" font-size="18.00" fill="#000000">public.organization</text>
<text text-anchor="start" x="604.7337" y="-178.3" font-family="Arial" font-size="14.00" fill="#000000">    </text>
<text text-anchor="start" x="638.9385" y="-178.3" font-family="Arial" font-size="14.00" fill="#666666">[BASE TABLE]</text>
<polygon fill="none" stroke="#000000" points="448,-135.5 448,-165.5 739,-165.5 739,-135.5 448,-135.5"/>
<text text-anchor="start" x="455" y="-146.9" font-family="Arial" font-size="14.00" fill="#000000">id </text>
<text text-anchor="start" x="469.7798" y="-146.9" font-family="Arial" font-size="14.00" fill="#666666">[uuid]</text>
<polygon fill="none" stroke="#000000" points="448,-105.5 448,-135.5 739,-135.5 739,-105.5 448,-105.5"/>
<text text-anchor="start" x="455" y="-116.9" font-family="Arial" font-size="14.00" fill="#000000">name </text>
<text text-anchor="start" x="493.899" y="-116.9" font-family="Arial" font-size="14.00" fill="#666666">[text]</text>
<polygon fill="none" stroke="#000000" points="448,-75.5 448,-105.5 739,-105.5 739,-75.5 448,-75.5"/>
<text text-anchor="start" x="455" y="-86.9" font-family="Arial" font-size="14.00" fill="#000000">created_at </text>
<text text-anchor="start" x="525.028" y="-86.9" font-family="Arial" font-size="14.00" fill="#666666">[timestamp with time zone]</text>
<polygon fill="none" stroke="#000000" points="448,-45.5 448,-75.5 739,-75.5 739,-45.5 448,-45.5"/>
<text text-anchor="start" x="455" y="-56.9" font-family="Arial" font-size="14.00" fill="#000000">updated_at </text>
<text text-anchor="start" x="528.9326" y="-56.9" font-family="Arial" font-size="14.00" fill="#666666">[timestamp with time zone]</text>
<polygon fill="none" stroke="#000000" stroke-width="3" points="446,-44.5 446,-202.5 740,-202.5 740,-44.5 446,-44.5"/>
</g>
<!-- public.account_organization -->
<g id="node2" class="node">
<title>public.account_organization</title>
<polygon fill="#efefef" stroke="transparent" points="412,-445.5 412,-480.5 776,-480.5 776,-445.5 412,-445.5"/>
<polygon fill="none" stroke="#000000" points="412,-445.5 412,-480.5 776,-480.5 776,-445.5 412,-445.5"/>
<text text-anchor="start" x="418.6817" y="-458.3" font-family="Arial Bold" font-size="18.00" fill="#000000">public.account_organization</text>
<text text-anchor="start" x="641.7503" y="-458.3" font-family="Arial" font-size="14.00" fill="#000000">    </text>
<text text-anchor="start" x="675.9551" y="-458.3" font-family="Arial" font-size="14.00" fill="#666666">[BASE TABLE]</text>
<polygon fill="none" stroke="#000000" points="412,-415.5 412,-445.5 776,-445.5 776,-415.5 412,-415.5"/>
<text text-anchor="start" x="419" y="-426.9" font-family="Arial" font-size="14.00" fill="#000000">account_id    </text>
<text text-anchor="start" x="520.8976" y="-426.9" font-family="Arial" font-size="14.00" fill="#666666">[uuid]</text>
<polygon fill="none" stroke="#000000" points="412,-385.5 412,-415.5 776,-415.5 776,-385.5 412,-385.5"/>
<text text-anchor="start" x="419" y="-396.9" font-family="Arial" font-size="14.00" fill="#000000">organization_id    </text>
<text text-anchor="start" x="548.1192" y="-396.9" font-family="Arial" font-size="14.00" fill="#666666">[uuid]</text>
<polygon fill="none" stroke="#000000" points="412,-355.5 412,-385.5 776,-385.5 776,-355.5 412,-355.5"/>
<text text-anchor="start" x="419" y="-366.9" font-family="Arial" font-size="14.00" fill="#000000">created_at    </text>
<text text-anchor="start" x="519.3422" y="-366.9" font-family="Arial" font-size="14.00" fill="#666666">[timestamp with time zone]</text>
<polygon fill="none" stroke="#000000" points="412,-325.5 412,-355.5 776,-355.5 776,-325.5 412,-325.5"/>
<text text-anchor="start" x="419" y="-336.9" font-family="Arial" font-size="14.00" fill="#000000">updated_at    </text>
<text text-anchor="start" x="523.2468" y="-336.9" font-family="Arial" font-size="14.00" fill="#666666">[timestamp with time zone]</text>
</g>
<!-- public.account_organization&#45;&gt;public.organization -->
<g id="edge1" class="edge">
<title>public.account_organization:organization_id&#45;&gt;public.organization:id</title>
<path fill="none" stroke="#000000" d="M401.9985,-399.3753C362.3075,-389.6425 379.6025,-319.1599 412,-283 460.7832,-228.5514 690.2168,-301.4486 739,-247 767.6196,-215.0567 781.8889,-150.5 739,-150.5"/>
<polygon fill="#000000" stroke="#000000" points="402.0626,-399.3824 411.4971,-404.9718 407.0313,-399.9412 412,-400.5 412,-400.5 412,-400.5 407.0313,-399.9412 412.5029,-396.0282 402.0626,-399.3824 402.0626,-399.3824"/>
<text text-anchor="start" x="6.5415" y="-410.5" font-family="Arial" font-size="10.00" fill="#000000">FOREIGN KEY (organization_id) REFERENCES organization(id) ON DELETE CASCADE</text>
</g>
</g>
</svg>
