<?xml version="1.0" encoding="UTF-8" standalone="no"?>
<!DOCTYPE svg PUBLIC "-//W3C//DTD SVG 1.1//EN"
 "http://www.w3.org/Graphics/SVG/1.1/DTD/svg11.dtd">
<!-- Generated by graphviz version 2.40.1 (20161225.0304)
 -->
<!-- Title: app Pages: 1 -->
<svg width="1158pt" height="526pt"
 viewBox="0.00 0.00 1158.00 526.00" xmlns="http://www.w3.org/2000/svg" xmlns:xlink="http://www.w3.org/1999/xlink">
<g id="graph0" class="graph" transform="scale(1 1) rotate(0) translate(4 522)">
<title>app</title>
<polygon fill="#ffffff" stroke="transparent" points="-4,4 -4,-522 1154,-522 1154,4 -4,4"/>
<!-- public.organization -->
<g id="node1" class="node">
<title>public.organization</title>
<polygon fill="#efefef" stroke="transparent" points="253,-162.5 253,-197.5 544,-197.5 544,-162.5 253,-162.5"/>
<polygon fill="none" stroke="#000000" points="253,-162.5 253,-197.5 544,-197.5 544,-162.5 253,-162.5"/>
<text text-anchor="start" x="259.6983" y="-175.3" font-family="Arial Bold" font-size="18.00" fill="#000000">public.organization</text>
<text text-anchor="start" x="409.7337" y="-175.3" font-family="Arial" font-size="14.00" fill="#000000">    </text>
<text text-anchor="start" x="443.9385" y="-175.3" font-family="Arial" font-size="14.00" fill="#666666">[BASE TABLE]</text>
<polygon fill="none" stroke="#000000" points="253,-132.5 253,-162.5 544,-162.5 544,-132.5 253,-132.5"/>
<text text-anchor="start" x="260" y="-143.9" font-family="Arial" font-size="14.00" fill="#000000">id    </text>
<text text-anchor="start" x="305.094" y="-143.9" font-family="Arial" font-size="14.00" fill="#666666">[uuid]</text>
<polygon fill="none" stroke="#000000" points="253,-102.5 253,-132.5 544,-132.5 544,-102.5 253,-102.5"/>
<text text-anchor="start" x="260" y="-113.9" font-family="Arial" font-size="14.00" fill="#000000">name    </text>
<text text-anchor="start" x="329.2132" y="-113.9" font-family="Arial" font-size="14.00" fill="#666666">[text]</text>
<polygon fill="none" stroke="#000000" points="253,-72.5 253,-102.5 544,-102.5 544,-72.5 253,-72.5"/>
<text text-anchor="start" x="260" y="-83.9" font-family="Arial" font-size="14.00" fill="#000000">created_at    </text>
<text text-anchor="start" x="360.3422" y="-83.9" font-family="Arial" font-size="14.00" fill="#666666">[timestamp with time zone]</text>
<polygon fill="none" stroke="#000000" points="253,-42.5 253,-72.5 544,-72.5 544,-42.5 253,-42.5"/>
<text text-anchor="start" x="260" y="-53.9" font-family="Arial" font-size="14.00" fill="#000000">updated_at    </text>
<text text-anchor="start" x="364.2468" y="-53.9" font-family="Arial" font-size="14.00" fill="#666666">[timestamp with time zone]</text>
</g>
<!-- public.account -->
<g id="node2" class="node">
<title>public.account</title>
<polygon fill="#efefef" stroke="transparent" points="648,-162.5 648,-197.5 931,-197.5 931,-162.5 648,-162.5"/>
<polygon fill="none" stroke="#000000" points="648,-162.5 648,-197.5 931,-197.5 931,-162.5 648,-162.5"/>
<text text-anchor="start" x="668.1979" y="-175.3" font-family="Arial Bold" font-size="18.00" fill="#000000">public.account</text>
<text text-anchor="start" x="783.2341" y="-175.3" font-family="Arial" font-size="14.00" fill="#000000">    </text>
<text text-anchor="start" x="817.4389" y="-175.3" font-family="Arial" font-size="14.00" fill="#666666">[BASE TABLE]</text>
<polygon fill="none" stroke="#000000" points="648,-132.5 648,-162.5 931,-162.5 931,-132.5 648,-132.5"/>
<text text-anchor="start" x="655" y="-143.9" font-family="Arial" font-size="14.00" fill="#000000">id    </text>
<text text-anchor="start" x="700.094" y="-143.9" font-family="Arial" font-size="14.00" fill="#666666">[uuid]</text>
<polygon fill="none" stroke="#000000" points="648,-102.5 648,-132.5 931,-132.5 931,-102.5 648,-102.5"/>
<text text-anchor="start" x="655" y="-113.9" font-family="Arial" font-size="14.00" fill="#000000">name    </text>
<text text-anchor="start" x="724.2132" y="-113.9" font-family="Arial" font-size="14.00" fill="#666666">[text]</text>
<polygon fill="none" stroke="#000000" points="648,-72.5 648,-102.5 931,-102.5 931,-72.5 648,-72.5"/>
<text text-anchor="start" x="655" y="-83.9" font-family="Arial" font-size="14.00" fill="#000000">created_at    </text>
<text text-anchor="start" x="755.3422" y="-83.9" font-family="Arial" font-size="14.00" fill="#666666">[timestamp with time zone]</text>
<polygon fill="none" stroke="#000000" points="648,-42.5 648,-72.5 931,-72.5 931,-42.5 648,-42.5"/>
<text text-anchor="start" x="654.5344" y="-53.9" font-family="Arial" font-size="14.00" fill="#000000">updated_at    </text>
<text text-anchor="start" x="758.7812" y="-53.9" font-family="Arial" font-size="14.00" fill="#666666">[timestamp with time zone]</text>
</g>
<!-- public.account_organization -->
<g id="node3" class="node">
<title>public.account_organization</title>
<polygon fill="#efefef" stroke="transparent" points="412,-439.5 412,-474.5 776,-474.5 776,-439.5 412,-439.5"/>
<polygon fill="none" stroke="#000000" points="412,-439.5 412,-474.5 776,-474.5 776,-439.5 412,-439.5"/>
<text text-anchor="start" x="418.6817" y="-452.3" font-family="Arial Bold" font-size="18.00" fill="#000000">public.account_organization</text>
<text text-anchor="start" x="641.7503" y="-452.3" font-family="Arial" font-size="14.00" fill="#000000">    </text>
<text text-anchor="start" x="675.9551" y="-452.3" font-family="Arial" font-size="14.00" fill="#666666">[BASE TABLE]</text>
<polygon fill="none" stroke="#000000" points="412,-409.5 412,-439.5 776,-439.5 776,-409.5 412,-409.5"/>
<text text-anchor="start" x="419" y="-420.9" font-family="Arial" font-size="14.00" fill="#000000">account_id    </text>
<text text-anchor="start" x="520.8976" y="-420.9" font-family="Arial" font-size="14.00" fill="#666666">[uuid]</text>
<polygon fill="none" stroke="#000000" points="412,-379.5 412,-409.5 776,-409.5 776,-379.5 412,-379.5"/>
<text text-anchor="start" x="419" y="-390.9" font-family="Arial" font-size="14.00" fill="#000000">organization_id    </text>
<text text-anchor="start" x="548.1192" y="-390.9" font-family="Arial" font-size="14.00" fill="#666666">[uuid]</text>
<polygon fill="none" stroke="#000000" points="412,-349.5 412,-379.5 776,-379.5 776,-349.5 412,-349.5"/>
<text text-anchor="start" x="419" y="-360.9" font-family="Arial" font-size="14.00" fill="#000000">created_at    </text>
<text text-anchor="start" x="519.3422" y="-360.9" font-family="Arial" font-size="14.00" fill="#666666">[timestamp with time zone]</text>
<polygon fill="none" stroke="#000000" points="412,-319.5 412,-349.5 776,-349.5 776,-319.5 412,-319.5"/>
<text text-anchor="start" x="419" y="-330.9" font-family="Arial" font-size="14.00" fill="#000000">updated_at    </text>
<text text-anchor="start" x="523.2468" y="-330.9" font-family="Arial" font-size="14.00" fill="#666666">[timestamp with time zone]</text>
</g>
<!-- public.account_organization&#45;&gt;public.organization -->
<g id="edge1" class="edge">
<title>public.account_organization:organization_id&#45;&gt;public.organization:id</title>
<path fill="none" stroke="#000000" d="M402.0419,-393.4112C362.7192,-383.9832 382.5302,-315.5833 412,-277 448.9109,-228.6744 507.0891,-289.3256 544,-241 569.224,-207.9755 585.5556,-147.5 544,-147.5"/>
<polygon fill="#000000" stroke="#000000" points="402.0592,-393.413 411.5109,-398.9733 407.0296,-393.9565 412,-394.5 412,-394.5 412,-394.5 407.0296,-393.9565 412.4891,-390.0267 402.0592,-393.413 402.0592,-393.413"/>
<text text-anchor="start" x="6.5415" y="-404.5" font-family="Arial" font-size="10.00" fill="#000000">FOREIGN KEY (organization_id) REFERENCES organization(id) ON DELETE CASCADE</text>
</g>
<!-- public.account_organization&#45;&gt;public.account -->
<g id="edge2" class="edge">
<title>public.account_organization:account_id&#45;&gt;public.account:id</title>
<path fill="none" stroke="#000000" d="M786.2726,-423.6084C838.5699,-413.8484 813.3432,-326.2948 776,-277 740.3152,-229.8944 683.6848,-288.1056 648,-241 622.9069,-207.876 606.4444,-147.5 648,-147.5"/>
<polygon fill="#000000" stroke="#000000" points="785.9625,-423.6353 775.6109,-420.0169 780.9813,-424.0676 776,-424.5 776,-424.5 776,-424.5 780.9813,-424.0676 776.3891,-428.9831 785.9625,-423.6353 785.9625,-423.6353"/>
<text text-anchor="start" x="782.9855" y="-434.5" font-family="Arial" font-size="10.00" fill="#000000">FOREIGN KEY (account_id) REFERENCES account(id) ON DELETE CASCADE</text>
</g>
</g>
</svg>
