<?xml version="1.0" encoding="UTF-8" standalone="no"?>
<!DOCTYPE svg PUBLIC "-//W3C//DTD SVG 1.1//EN"
 "http://www.w3.org/Graphics/SVG/1.1/DTD/svg11.dtd">
<!-- Generated by graphviz version 2.40.1 (20161225.0304)
 -->
<!-- Title: app Pages: 1 -->
<svg width="1158pt" height="556pt"
 viewBox="0.00 0.00 1158.00 556.00" xmlns="http://www.w3.org/2000/svg" xmlns:xlink="http://www.w3.org/1999/xlink">
<g id="graph0" class="graph" transform="scale(1 1) rotate(0) translate(4 552)">
<title>app</title>
<polygon fill="#ffffff" stroke="transparent" points="-4,4 -4,-552 1154,-552 1154,4 -4,4"/>
<!-- public.organization -->
<g id="node1" class="node">
<title>public.organization</title>
<polygon fill="#efefef" stroke="transparent" points="253,-177.5 253,-212.5 544,-212.5 544,-177.5 253,-177.5"/>
<polygon fill="none" stroke="#000000" points="253,-177.5 253,-212.5 544,-212.5 544,-177.5 253,-177.5"/>
<text text-anchor="start" x="259.6983" y="-190.3" font-family="Arial Bold" font-size="18.00" fill="#000000">public.organization</text>
<text text-anchor="start" x="409.7337" y="-190.3" font-family="Arial" font-size="14.00" fill="#000000">    </text>
<text text-anchor="start" x="443.9385" y="-190.3" font-family="Arial" font-size="14.00" fill="#666666">[BASE TABLE]</text>
<polygon fill="none" stroke="#000000" points="253,-147.5 253,-177.5 544,-177.5 544,-147.5 253,-147.5"/>
<text text-anchor="start" x="260" y="-158.9" font-family="Arial" font-size="14.00" fill="#000000">id    </text>
<text text-anchor="start" x="305.094" y="-158.9" font-family="Arial" font-size="14.00" fill="#666666">[uuid]</text>
<polygon fill="none" stroke="#000000" points="253,-117.5 253,-147.5 544,-147.5 544,-117.5 253,-117.5"/>
<text text-anchor="start" x="260" y="-128.9" font-family="Arial" font-size="14.00" fill="#000000">name    </text>
<text text-anchor="start" x="329.2132" y="-128.9" font-family="Arial" font-size="14.00" fill="#666666">[text]</text>
<polygon fill="none" stroke="#000000" points="253,-87.5 253,-117.5 544,-117.5 544,-87.5 253,-87.5"/>
<text text-anchor="start" x="260" y="-98.9" font-family="Arial" font-size="14.00" fill="#000000">created_at    </text>
<text text-anchor="start" x="360.3422" y="-98.9" font-family="Arial" font-size="14.00" fill="#666666">[timestamp with time zone]</text>
<polygon fill="none" stroke="#000000" points="253,-57.5 253,-87.5 544,-87.5 544,-57.5 253,-57.5"/>
<text text-anchor="start" x="260" y="-68.9" font-family="Arial" font-size="14.00" fill="#000000">updated_at    </text>
<text text-anchor="start" x="364.2468" y="-68.9" font-family="Arial" font-size="14.00" fill="#666666">[timestamp with time zone]</text>
</g>
<!-- public.account -->
<g id="node2" class="node">
<title>public.account</title>
<polygon fill="#efefef" stroke="transparent" points="648,-192.5 648,-227.5 931,-227.5 931,-192.5 648,-192.5"/>
<polygon fill="none" stroke="#000000" points="648,-192.5 648,-227.5 931,-227.5 931,-192.5 648,-192.5"/>
<text text-anchor="start" x="668.1979" y="-205.3" font-family="Arial Bold" font-size="18.00" fill="#000000">public.account</text>
<text text-anchor="start" x="783.2341" y="-205.3" font-family="Arial" font-size="14.00" fill="#000000">    </text>
<text text-anchor="start" x="817.4389" y="-205.3" font-family="Arial" font-size="14.00" fill="#666666">[BASE TABLE]</text>
<polygon fill="none" stroke="#000000" points="648,-162.5 648,-192.5 931,-192.5 931,-162.5 648,-162.5"/>
<text text-anchor="start" x="655" y="-173.9" font-family="Arial" font-size="14.00" fill="#000000">id    </text>
<text text-anchor="start" x="700.094" y="-173.9" font-family="Arial" font-size="14.00" fill="#666666">[uuid]</text>
<polygon fill="none" stroke="#000000" points="648,-132.5 648,-162.5 931,-162.5 931,-132.5 648,-132.5"/>
<text text-anchor="start" x="655" y="-143.9" font-family="Arial" font-size="14.00" fill="#000000">name    </text>
<text text-anchor="start" x="724.2132" y="-143.9" font-family="Arial" font-size="14.00" fill="#666666">[text]</text>
<polygon fill="none" stroke="#000000" points="648,-102.5 648,-132.5 931,-132.5 931,-102.5 648,-102.5"/>
<text text-anchor="start" x="655" y="-113.9" font-family="Arial" font-size="14.00" fill="#000000">email    </text>
<text text-anchor="start" x="722.6438" y="-113.9" font-family="Arial" font-size="14.00" fill="#666666">[text]</text>
<polygon fill="none" stroke="#000000" points="648,-72.5 648,-102.5 931,-102.5 931,-72.5 648,-72.5"/>
<text text-anchor="start" x="655" y="-83.9" font-family="Arial" font-size="14.00" fill="#000000">created_at    </text>
<text text-anchor="start" x="755.3422" y="-83.9" font-family="Arial" font-size="14.00" fill="#666666">[timestamp with time zone]</text>
<polygon fill="none" stroke="#000000" points="648,-42.5 648,-72.5 931,-72.5 931,-42.5 648,-42.5"/>
<text text-anchor="start" x="654.5344" y="-53.9" font-family="Arial" font-size="14.00" fill="#000000">updated_at    </text>
<text text-anchor="start" x="758.7812" y="-53.9" font-family="Arial" font-size="14.00" fill="#666666">[timestamp with time zone]</text>
</g>
<!-- public.account_organization -->
<g id="node3" class="node">
<title>public.account_organization</title>
<polygon fill="#efefef" stroke="transparent" points="412,-469.5 412,-504.5 776,-504.5 776,-469.5 412,-469.5"/>
<polygon fill="none" stroke="#000000" points="412,-469.5 412,-504.5 776,-504.5 776,-469.5 412,-469.5"/>
<text text-anchor="start" x="418.6817" y="-482.3" font-family="Arial Bold" font-size="18.00" fill="#000000">public.account_organization</text>
<text text-anchor="start" x="641.7503" y="-482.3" font-family="Arial" font-size="14.00" fill="#000000">    </text>
<text text-anchor="start" x="675.9551" y="-482.3" font-family="Arial" font-size="14.00" fill="#666666">[BASE TABLE]</text>
<polygon fill="none" stroke="#000000" points="412,-439.5 412,-469.5 776,-469.5 776,-439.5 412,-439.5"/>
<text text-anchor="start" x="419" y="-450.9" font-family="Arial" font-size="14.00" fill="#000000">account_id    </text>
<text text-anchor="start" x="520.8976" y="-450.9" font-family="Arial" font-size="14.00" fill="#666666">[uuid]</text>
<polygon fill="none" stroke="#000000" points="412,-409.5 412,-439.5 776,-439.5 776,-409.5 412,-409.5"/>
<text text-anchor="start" x="419" y="-420.9" font-family="Arial" font-size="14.00" fill="#000000">organization_id    </text>
<text text-anchor="start" x="548.1192" y="-420.9" font-family="Arial" font-size="14.00" fill="#666666">[uuid]</text>
<polygon fill="none" stroke="#000000" points="412,-379.5 412,-409.5 776,-409.5 776,-379.5 412,-379.5"/>
<text text-anchor="start" x="419" y="-390.9" font-family="Arial" font-size="14.00" fill="#000000">created_at    </text>
<text text-anchor="start" x="519.3422" y="-390.9" font-family="Arial" font-size="14.00" fill="#666666">[timestamp with time zone]</text>
<polygon fill="none" stroke="#000000" points="412,-349.5 412,-379.5 776,-379.5 776,-349.5 412,-349.5"/>
<text text-anchor="start" x="419" y="-360.9" font-family="Arial" font-size="14.00" fill="#000000">updated_at    </text>
<text text-anchor="start" x="523.2468" y="-360.9" font-family="Arial" font-size="14.00" fill="#666666">[timestamp with time zone]</text>
</g>
<!-- public.account_organization&#45;&gt;public.organization -->
<g id="edge1" class="edge">
<title>public.account_organization:organization_id&#45;&gt;public.organization:id</title>
<path fill="none" stroke="#000000" d="M401.5825,-423.3133C363.1835,-413.6245 384.6597,-346.8733 412,-307 447.5667,-255.1293 508.4333,-307.8707 544,-256 567.5,-221.7274 585.5556,-162.5 544,-162.5"/>
<polygon fill="#000000" stroke="#000000" points="402.0643,-423.3681 411.4906,-428.9711 407.0321,-423.934 412,-424.5 412,-424.5 412,-424.5 407.0321,-423.934 412.5094,-420.0289 402.0643,-423.3681 402.0643,-423.3681"/>
<text text-anchor="start" x="6.5415" y="-434.5" font-family="Arial" font-size="10.00" fill="#000000">FOREIGN KEY (organization_id) REFERENCES organization(id) ON DELETE CASCADE</text>
</g>
<!-- public.account_organization&#45;&gt;public.account -->
<g id="edge2" class="edge">
<title>public.account_organization:account_id&#45;&gt;public.account:id</title>
<path fill="none" stroke="#000000" d="M786.2726,-453.6084C838.5699,-443.8484 813.3432,-356.2948 776,-307 740.3152,-259.8944 683.6848,-318.1056 648,-271 622.9069,-237.876 606.4444,-177.5 648,-177.5"/>
<polygon fill="#000000" stroke="#000000" points="785.9625,-453.6353 775.6109,-450.0169 780.9813,-454.0676 776,-454.5 776,-454.5 776,-454.5 780.9813,-454.0676 776.3891,-458.9831 785.9625,-453.6353 785.9625,-453.6353"/>
<text text-anchor="start" x="782.9855" y="-464.5" font-family="Arial" font-size="10.00" fill="#000000">FOREIGN KEY (account_id) REFERENCES account(id) ON DELETE CASCADE</text>
</g>
</g>
</svg>
