<?xml version="1.0" encoding="UTF-8" standalone="no"?>
<!DOCTYPE svg PUBLIC "-//W3C//DTD SVG 1.1//EN"
 "http://www.w3.org/Graphics/SVG/1.1/DTD/svg11.dtd">
<!-- Generated by graphviz version 2.40.1 (20161225.0304)
 -->
<!-- Title: public.account Pages: 1 -->
<svg width="789pt" height="562pt"
 viewBox="0.00 0.00 789.00 562.00" xmlns="http://www.w3.org/2000/svg" xmlns:xlink="http://www.w3.org/1999/xlink">
<g id="graph0" class="graph" transform="scale(1 1) rotate(0) translate(4 558)">
<title>public.account</title>
<polygon fill="#ffffff" stroke="transparent" points="-4,4 -4,-558 785,-558 785,4 -4,4"/>
<!-- public.account -->
<g id="node1" class="node">
<title>public.account</title>
<polygon fill="#efefef" stroke="transparent" points="97,-195.5 97,-230.5 353,-230.5 353,-195.5 97,-195.5"/>
<polygon fill="none" stroke="#000000" points="97,-195.5 97,-230.5 353,-230.5 353,-195.5 97,-195.5"/>
<text text-anchor="start" x="103.6979" y="-208.3" font-family="Arial Bold" font-size="18.00" fill="#000000">public.account</text>
<text text-anchor="start" x="218.7341" y="-208.3" font-family="Arial" font-size="14.00" fill="#000000">    </text>
<text text-anchor="start" x="252.9389" y="-208.3" font-family="Arial" font-size="14.00" fill="#666666">[BASE TABLE]</text>
<polygon fill="none" stroke="#000000" points="97,-165.5 97,-195.5 353,-195.5 353,-165.5 97,-165.5"/>
<text text-anchor="start" x="104" y="-176.9" font-family="Arial" font-size="14.00" fill="#000000">id </text>
<text text-anchor="start" x="118.7798" y="-176.9" font-family="Arial" font-size="14.00" fill="#666666">[uuid]</text>
<polygon fill="none" stroke="#000000" points="97,-135.5 97,-165.5 353,-165.5 353,-135.5 97,-135.5"/>
<text text-anchor="start" x="104" y="-146.9" font-family="Arial" font-size="14.00" fill="#000000">name </text>
<text text-anchor="start" x="142.899" y="-146.9" font-family="Arial" font-size="14.00" fill="#666666">[text]</text>
<polygon fill="none" stroke="#000000" points="97,-105.5 97,-135.5 353,-135.5 353,-105.5 97,-105.5"/>
<text text-anchor="start" x="104" y="-116.9" font-family="Arial" font-size="14.00" fill="#000000">email </text>
<text text-anchor="start" x="141.3296" y="-116.9" font-family="Arial" font-size="14.00" fill="#666666">[text]</text>
<polygon fill="none" stroke="#000000" points="97,-75.5 97,-105.5 353,-105.5 353,-75.5 97,-75.5"/>
<text text-anchor="start" x="104" y="-86.9" font-family="Arial" font-size="14.00" fill="#000000">created_at </text>
<text text-anchor="start" x="174.028" y="-86.9" font-family="Arial" font-size="14.00" fill="#666666">[timestamp with time zone]</text>
<polygon fill="none" stroke="#000000" points="97,-45.5 97,-75.5 353,-75.5 353,-45.5 97,-45.5"/>
<text text-anchor="start" x="104" y="-56.9" font-family="Arial" font-size="14.00" fill="#000000">updated_at </text>
<text text-anchor="start" x="177.9326" y="-56.9" font-family="Arial" font-size="14.00" fill="#666666">[timestamp with time zone]</text>
<polygon fill="none" stroke="#000000" stroke-width="3" points="95.5,-44.5 95.5,-232.5 354.5,-232.5 354.5,-44.5 95.5,-44.5"/>
</g>
<!-- public.account_organization -->
<g id="node2" class="node">
<title>public.account_organization</title>
<polygon fill="#efefef" stroke="transparent" points="43,-475.5 43,-510.5 407,-510.5 407,-475.5 43,-475.5"/>
<polygon fill="none" stroke="#000000" points="43,-475.5 43,-510.5 407,-510.5 407,-475.5 43,-475.5"/>
<text text-anchor="start" x="49.6817" y="-488.3" font-family="Arial Bold" font-size="18.00" fill="#000000">public.account_organization</text>
<text text-anchor="start" x="272.7503" y="-488.3" font-family="Arial" font-size="14.00" fill="#000000">    </text>
<text text-anchor="start" x="306.9551" y="-488.3" font-family="Arial" font-size="14.00" fill="#666666">[BASE TABLE]</text>
<polygon fill="none" stroke="#000000" points="43,-445.5 43,-475.5 407,-475.5 407,-445.5 43,-445.5"/>
<text text-anchor="start" x="50" y="-456.9" font-family="Arial" font-size="14.00" fill="#000000">account_id    </text>
<text text-anchor="start" x="151.8976" y="-456.9" font-family="Arial" font-size="14.00" fill="#666666">[uuid]</text>
<polygon fill="none" stroke="#000000" points="43,-415.5 43,-445.5 407,-445.5 407,-415.5 43,-415.5"/>
<text text-anchor="start" x="50" y="-426.9" font-family="Arial" font-size="14.00" fill="#000000">organization_id    </text>
<text text-anchor="start" x="179.1192" y="-426.9" font-family="Arial" font-size="14.00" fill="#666666">[uuid]</text>
<polygon fill="none" stroke="#000000" points="43,-385.5 43,-415.5 407,-415.5 407,-385.5 43,-385.5"/>
<text text-anchor="start" x="50" y="-396.9" font-family="Arial" font-size="14.00" fill="#000000">created_at    </text>
<text text-anchor="start" x="150.3422" y="-396.9" font-family="Arial" font-size="14.00" fill="#666666">[timestamp with time zone]</text>
<polygon fill="none" stroke="#000000" points="43,-355.5 43,-385.5 407,-385.5 407,-355.5 43,-355.5"/>
<text text-anchor="start" x="50" y="-366.9" font-family="Arial" font-size="14.00" fill="#000000">updated_at    </text>
<text text-anchor="start" x="154.2468" y="-366.9" font-family="Arial" font-size="14.00" fill="#666666">[timestamp with time zone]</text>
</g>
<!-- public.account_organization&#45;&gt;public.account -->
<g id="edge1" class="edge">
<title>public.account_organization:account_id&#45;&gt;public.account:id</title>
<path fill="none" stroke="#000000" d="M416.9932,-459.8834C530.7301,-445.3969 476.2721,-180.5 353,-180.5"/>
<polygon fill="#000000" stroke="#000000" points="416.981,-459.8841 406.7228,-456.0085 411.9905,-460.192 407,-460.5 407,-460.5 407,-460.5 411.9905,-460.192 407.2772,-464.9915 416.981,-459.8841 416.981,-459.8841"/>
<text text-anchor="start" x="413.9855" y="-470.5" font-family="Arial" font-size="10.00" fill="#000000">FOREIGN KEY (account_id) REFERENCES account(id) ON DELETE CASCADE</text>
</g>
</g>
</svg>
