<?xml version="1.0" encoding="UTF-8" standalone="no"?>
<!DOCTYPE svg PUBLIC "-//W3C//DTD SVG 1.1//EN"
 "http://www.w3.org/Graphics/SVG/1.1/DTD/svg11.dtd">
<!-- Generated by graphviz version 2.40.1 (20161225.0304)
 -->
<!-- Title: public.account_organization Pages: 1 -->
<svg width="1158pt" height="562pt"
 viewBox="0.00 0.00 1158.00 562.00" xmlns="http://www.w3.org/2000/svg" xmlns:xlink="http://www.w3.org/1999/xlink">
<g id="graph0" class="graph" transform="scale(1 1) rotate(0) translate(4 558)">
<title>public.account_organization</title>
<polygon fill="#ffffff" stroke="transparent" points="-4,4 -4,-558 1154,-558 1154,4 -4,4"/>
<!-- public.account_organization -->
<g id="node1" class="node">
<title>public.account_organization</title>
<polygon fill="#efefef" stroke="transparent" points="374,-472.5 374,-507.5 738,-507.5 738,-472.5 374,-472.5"/>
<polygon fill="none" stroke="#000000" points="374,-472.5 374,-507.5 738,-507.5 738,-472.5 374,-472.5"/>
<text text-anchor="start" x="380.6817" y="-485.3" font-family="Arial Bold" font-size="18.00" fill="#000000">public.account_organization</text>
<text text-anchor="start" x="603.7503" y="-485.3" font-family="Arial" font-size="14.00" fill="#000000">    </text>
<text text-anchor="start" x="637.9551" y="-485.3" font-family="Arial" font-size="14.00" fill="#666666">[BASE TABLE]</text>
<polygon fill="none" stroke="#000000" points="374,-442.5 374,-472.5 738,-472.5 738,-442.5 374,-442.5"/>
<text text-anchor="start" x="381" y="-453.9" font-family="Arial" font-size="14.00" fill="#000000">account_id </text>
<text text-anchor="start" x="452.5834" y="-453.9" font-family="Arial" font-size="14.00" fill="#666666">[uuid]</text>
<polygon fill="none" stroke="#000000" points="374,-412.5 374,-442.5 738,-442.5 738,-412.5 374,-412.5"/>
<text text-anchor="start" x="381" y="-423.9" font-family="Arial" font-size="14.00" fill="#000000">organization_id </text>
<text text-anchor="start" x="479.805" y="-423.9" font-family="Arial" font-size="14.00" fill="#666666">[uuid]</text>
<polygon fill="none" stroke="#000000" points="374,-382.5 374,-412.5 738,-412.5 738,-382.5 374,-382.5"/>
<text text-anchor="start" x="381" y="-393.9" font-family="Arial" font-size="14.00" fill="#000000">created_at </text>
<text text-anchor="start" x="451.028" y="-393.9" font-family="Arial" font-size="14.00" fill="#666666">[timestamp with time zone]</text>
<polygon fill="none" stroke="#000000" points="374,-352.5 374,-382.5 738,-382.5 738,-352.5 374,-352.5"/>
<text text-anchor="start" x="381" y="-363.9" font-family="Arial" font-size="14.00" fill="#000000">updated_at </text>
<text text-anchor="start" x="454.9326" y="-363.9" font-family="Arial" font-size="14.00" fill="#666666">[timestamp with time zone]</text>
<polygon fill="none" stroke="#000000" stroke-width="3" points="372.5,-351.5 372.5,-509.5 739.5,-509.5 739.5,-351.5 372.5,-351.5"/>
</g>
<!-- public.account -->
<g id="node2" class="node">
<title>public.account</title>
<polygon fill="#efefef" stroke="transparent" points="219,-192.5 219,-227.5 502,-227.5 502,-192.5 219,-192.5"/>
<polygon fill="none" stroke="#000000" points="219,-192.5 219,-227.5 502,-227.5 502,-192.5 219,-192.5"/>
<text text-anchor="start" x="239.1979" y="-205.3" font-family="Arial Bold" font-size="18.00" fill="#000000">public.account</text>
<text text-anchor="start" x="354.2341" y="-205.3" font-family="Arial" font-size="14.00" fill="#000000">    </text>
<text text-anchor="start" x="388.4389" y="-205.3" font-family="Arial" font-size="14.00" fill="#666666">[BASE TABLE]</text>
<polygon fill="none" stroke="#000000" points="219,-162.5 219,-192.5 502,-192.5 502,-162.5 219,-162.5"/>
<text text-anchor="start" x="226" y="-173.9" font-family="Arial" font-size="14.00" fill="#000000">id    </text>
<text text-anchor="start" x="271.094" y="-173.9" font-family="Arial" font-size="14.00" fill="#666666">[uuid]</text>
<polygon fill="none" stroke="#000000" points="219,-132.5 219,-162.5 502,-162.5 502,-132.5 219,-132.5"/>
<text text-anchor="start" x="226" y="-143.9" font-family="Arial" font-size="14.00" fill="#000000">name    </text>
<text text-anchor="start" x="295.2132" y="-143.9" font-family="Arial" font-size="14.00" fill="#666666">[text]</text>
<polygon fill="none" stroke="#000000" points="219,-102.5 219,-132.5 502,-132.5 502,-102.5 219,-102.5"/>
<text text-anchor="start" x="226" y="-113.9" font-family="Arial" font-size="14.00" fill="#000000">email    </text>
<text text-anchor="start" x="293.6438" y="-113.9" font-family="Arial" font-size="14.00" fill="#666666">[text]</text>
<polygon fill="none" stroke="#000000" points="219,-72.5 219,-102.5 502,-102.5 502,-72.5 219,-72.5"/>
<text text-anchor="start" x="226" y="-83.9" font-family="Arial" font-size="14.00" fill="#000000">created_at    </text>
<text text-anchor="start" x="326.3422" y="-83.9" font-family="Arial" font-size="14.00" fill="#666666">[timestamp with time zone]</text>
<polygon fill="none" stroke="#000000" points="219,-42.5 219,-72.5 502,-72.5 502,-42.5 219,-42.5"/>
<text text-anchor="start" x="225.5344" y="-53.9" font-family="Arial" font-size="14.00" fill="#000000">updated_at    </text>
<text text-anchor="start" x="329.7812" y="-53.9" font-family="Arial" font-size="14.00" fill="#666666">[timestamp with time zone]</text>
</g>
<!-- public.account_organization&#45;&gt;public.account -->
<g id="edge1" class="edge">
<title>public.account_organization:account_id&#45;&gt;public.account:id</title>
<path fill="none" stroke="#000000" d="M363.8509,-456.6511C310.0509,-447.0018 335.8184,-357.4015 374,-307 409.6848,-259.8944 466.3152,-318.1056 502,-271 527.0931,-237.876 543.5556,-177.5 502,-177.5"/>
<polygon fill="#000000" stroke="#000000" points="364.0348,-456.6664 373.6249,-461.9843 369.0174,-457.0832 374,-457.5 374,-457.5 374,-457.5 369.0174,-457.0832 374.3751,-453.0157 364.0348,-456.6664 364.0348,-456.6664"/>
<text text-anchor="start" x="6.9855" y="-467.5" font-family="Arial" font-size="10.00" fill="#000000">FOREIGN KEY (account_id) REFERENCES account(id) ON DELETE CASCADE</text>
</g>
<!-- public.organization -->
<g id="node3" class="node">
<title>public.organization</title>
<polygon fill="#efefef" stroke="transparent" points="606,-177.5 606,-212.5 897,-212.5 897,-177.5 606,-177.5"/>
<polygon fill="none" stroke="#000000" points="606,-177.5 606,-212.5 897,-212.5 897,-177.5 606,-177.5"/>
<text text-anchor="start" x="612.6983" y="-190.3" font-family="Arial Bold" font-size="18.00" fill="#000000">public.organization</text>
<text text-anchor="start" x="762.7337" y="-190.3" font-family="Arial" font-size="14.00" fill="#000000">    </text>
<text text-anchor="start" x="796.9385" y="-190.3" font-family="Arial" font-size="14.00" fill="#666666">[BASE TABLE]</text>
<polygon fill="none" stroke="#000000" points="606,-147.5 606,-177.5 897,-177.5 897,-147.5 606,-147.5"/>
<text text-anchor="start" x="613" y="-158.9" font-family="Arial" font-size="14.00" fill="#000000">id    </text>
<text text-anchor="start" x="658.094" y="-158.9" font-family="Arial" font-size="14.00" fill="#666666">[uuid]</text>
<polygon fill="none" stroke="#000000" points="606,-117.5 606,-147.5 897,-147.5 897,-117.5 606,-117.5"/>
<text text-anchor="start" x="613" y="-128.9" font-family="Arial" font-size="14.00" fill="#000000">name    </text>
<text text-anchor="start" x="682.2132" y="-128.9" font-family="Arial" font-size="14.00" fill="#666666">[text]</text>
<polygon fill="none" stroke="#000000" points="606,-87.5 606,-117.5 897,-117.5 897,-87.5 606,-87.5"/>
<text text-anchor="start" x="613" y="-98.9" font-family="Arial" font-size="14.00" fill="#000000">created_at    </text>
<text text-anchor="start" x="713.3422" y="-98.9" font-family="Arial" font-size="14.00" fill="#666666">[timestamp with time zone]</text>
<polygon fill="none" stroke="#000000" points="606,-57.5 606,-87.5 897,-87.5 897,-57.5 606,-57.5"/>
<text text-anchor="start" x="613" y="-68.9" font-family="Arial" font-size="14.00" fill="#000000">updated_at    </text>
<text text-anchor="start" x="717.2468" y="-68.9" font-family="Arial" font-size="14.00" fill="#666666">[timestamp with time zone]</text>
</g>
<!-- public.account_organization&#45;&gt;public.organization -->
<g id="edge2" class="edge">
<title>public.account_organization:organization_id&#45;&gt;public.organization:id</title>
<path fill="none" stroke="#000000" d="M748.1817,-426.4056C788.2486,-416.925 766.1567,-348.0639 738,-307 702.4333,-255.1293 641.5667,-307.8707 606,-256 582.5,-221.7274 564.4444,-162.5 606,-162.5"/>
<polygon fill="#000000" stroke="#000000" points="747.9427,-426.4312 737.519,-423.0258 742.9714,-426.9656 738,-427.5 738,-427.5 738,-427.5 742.9714,-426.9656 738.481,-431.9742 747.9427,-426.4312 747.9427,-426.4312"/>
<text text-anchor="start" x="744.5415" y="-437.5" font-family="Arial" font-size="10.00" fill="#000000">FOREIGN KEY (organization_id) REFERENCES organization(id) ON DELETE CASCADE</text>
</g>
</g>
</svg>
